<svg fill="none" height="40" viewBox="0 0 50 50" width="40" xmlns="http://www.w3.org/2000/svg">
  <path d="m22.0852.160518c-5.6828.746247-10.6243 3.109362-14.57751 6.984112-3.41155 3.33897-5.70176 7.36677-6.851615 12.05477-.494153 2.0187-.66520538 3.5686-.65570244 5.836.00950294 4.1139.81725244 7.5008 2.67032744 11.232 1.85307 3.7121 4.77998 7.0319 8.3531 9.4429 4.7705 3.2146 10.8238 4.7645 16.288 4.1618 6.272-.6985 11.28-3.0616 15.4993-7.3381 5.7018-5.7882 8.0965-13.2698 6.8801-21.6125-.7032-4.8984-3.5066-10.2944-7.1462-13.78644-3.44-3.29114-7.5738-5.52988-12.0972-6.544015-2.5943-.5740359-5.9298-.755814-8.3626-.430527zm5.9964 3.157202c6.8516 1.00456 12.9049 5.43421 16.0409 11.73908.9503 1.9134 1.6345 4.0756 1.9766 6.1995.2376 1.4734.2376 5.4247 0 6.7928-.6367 3.6164-1.9291 6.678-4.0957 9.6151-.3612.4975-1.3019 1.5499-2.0812 2.3344l-1.4159 1.416.057.7367.057.7271-.2756-1.0524c-.3231-1.2533-.6082-1.9517-1.0263-2.5066-.171-.2297-.3136-.4688-.3136-.5358.0095-.0574.2471-.287.5417-.4975.5321-.3827 1.2639-1.1577 1.663-1.77.1425-.2009.3421-.3635.5417-.4209.4751-.134 1.0168-.6984 1.1403-1.1864.1331-.4688.0855-.6888-.2376-1.1767l-.2375-.3445.209-.9471c.2091-.9376.2091-.9567.0475-2.4301-.0855-.8132-.152-1.5977-.152-1.7317 0-.3348-.7317-1.8082-1.3114-2.6214-.9693-1.3777-1.3304-1.703-2.7369-2.3918-1.6345-.8132-2.2331-.9472-3.8867-.8802-1.4444.0574-2.6608.3348-3.7726.8706-1.1214.5358-2.3948 1.8082-3.6206 3.6356-.4182.6123-.4467.6888-.4467 1.282 0 .4592-.095.9089-.3421 1.6838-.4181 1.3107-.3991 1.6169.1996 2.6406.2376.4018.4276.7845.4276.8323 0 .0574-.1235.2392-.2851.4114-.5036.5454-.4941 1.3873.0285 1.9518.2946.3157 1.0168.6123 1.1974.4879.0475-.0287.0095-.2679-.095-.5262-.2851-.7558-.2091-.7845.1425-.0478.6937 1.4733 1.6345 2.4205 3.1455 3.1667 1.1403.5549 2.1191.8037 3.5161.8706.6272.0287 1.0548.0861.9503.1244-.5702.2009-3.193-.1722-4.3999-.6314l-.6272-.2392-.1615.22c-.3516.4593-1.0454 1.9805-1.2164 2.6597-.095.3923-.2281 1.1864-.2946 1.7604-.1901 1.7891-.2661 1.9517-.4656.8993-.3326-1.7412-2.5658-9.9882-2.8414-10.4857-.038-.0765-.6367-.2774-1.3304-.4496-.6937-.1818-1.454-.3923-1.6916-.488-.228-.0861-.4466-.1339-.4751-.1052s.133.3061.3611.6123c.2281.3061.5512.7749.7222 1.0333.4467.7175 1.4825 2.9562 1.7866 3.846.3326.9472.3041 1.0141-.6937 1.8656-.3801.3253-.6937.6602-.6937.7463 0 .0765.4371.5549.9693 1.0524.9217.8706.9598.928.8837 1.1959l-.0855.287-.038-.2966c-.019-.2296-.2471-.4879-1.0168-1.2246-.5512-.5071-.9978-.9854-.9978-1.062 0-.0669.3421-.4209.7507-.7845 1.0453-.8993 1.0548-.9567.6272-2.057-.7222-1.8464-2.2712-4.6975-2.8414-5.2333-.1805-.1722-.2471-.3348-.2471-.5931 0-.3923.0856-.488.5702-.6506.4942-.1626.9788-.5358 1.3114-1.0046.2661-.3731.3801-.4401 1.1119-.6697.4466-.1435.8077-.2966.8077-.3348 0-.0479-.171-.2966-.3801-.5454-.4086-.4975-.4847-.8514-.2091-.9375.0856-.0287.4182-.0766.7318-.1149.3136-.0287.5986-.0765.6367-.1052.038-.0191-.0571-.3827-.2091-.8036-.1616-.421-.2851-.8228-.2851-.8802 0-.067.2471-.1914.5512-.2966.6747-.2201 1.8245-.7941 1.8245-.9089 0-.0478-.3516-.2775-.7697-.5071-.8268-.4401-1.663-1.1098-1.5395-1.2246.038-.0383.3801-.1722.7412-.287.9123-.3062 1.8816-.7558 2.6419-1.2438.3516-.22.6367-.4209.6177-.4305-.0381-.0287-2.6133-1.1385-2.8604-1.2246-.1141-.0478-.1426-.1052-.0951-.1913.0381-.0766.6653-.6889 1.3875-1.3586.7127-.6793 1.3019-1.2629 1.3019-1.3011 0-.0766-.5892-.1818-2.3282-.4306-.6272-.0956-1.1784-.1913-1.2164-.2296-.0475-.0382.3896-.8802.9693-1.8656.9408-1.6169 1.1213-1.9613 1.0263-1.9613-.019 0-.7983.2775-1.7295.6219-1.359.4975-1.7296.5932-1.8246.4975-.2091-.2105-.4086-1.7891-.4086-3.2051v-1.36807l-.7698.41139c-.9027.48798-2.1096 1.43508-2.6703 2.09528-.2091.2583-.4276.4688-.4656.4688-.0476 0-.4087-.4401-.8173-.9855-.7032-.9376-1.8911-2.26742-2.0241-2.26742-.038 0-.1141.42096-.1711.92802-.171 1.4351-.6747 3.1859-.9218 3.1859-.0665 0-.5226-.1913-1.0073-.421-.7792-.3635-1.9671-.7271-2.4042-.7271-.114 0-.057.1722.2186.7367.4181.8515.7982 2.1814.7507 2.6406l-.0285.3061-.8553.067c-2.48975.1914-3.65861.3062-3.65861.354 0 .0383.41813.4879.93129 1.0141.95979.9759 1.66301 2.0187 1.61549 2.3823-.019.1339-.50365.5357-1.50146 1.2342-.80775.5644-1.48246 1.0715-1.50146 1.1193-.01901.0479.08552.1148.23757.1531 1.01681.22 1.45395.3636 1.81506.574.49415.2966 1.00731.7367 1.26392 1.1003l.19.2679-1.0643 1.0619c-.89328.8993-1.04532 1.0811-.93129 1.1864.07603.0669.6462.287 1.2734.4783.62719.1914 1.17839.3923 1.22589.4401.0475.0479-.0285.5358-.2091 1.2055-.1615.6219-.2661 1.1672-.2376 1.215.0476.0861 1.6155.0096 1.8721-.0861.2376-.0861.3326.1435.3992.8994.038.4401.095.8132.133.8323.076.0478 1.1403-.4114 1.1403-.4879 0-.0287-.1235-.2296-.2755-.4497-.6367-.9376-1.0739-2.1143-1.416-3.846-.228-1.1003-.3326-2.1527-.2185-2.1527.038 0 .1045.3062.1425.6793.1901 2.1335 1.1689 4.8411 2.0621 5.7404.2281.2296.7223.5549 1.1974.7749l.7983.3731-.0286.354-.0285.354-2.1096.708-2.1097.708-.19.5836c-.1046.3253-.5417 1.8082-.9598 3.3103-.77927 2.7266-1.01684 3.4155-.9028 2.6023.04751-.4019.0285-.4401-.45615-.9759-3.03143-3.2911-4.90351-7.1468-5.63524-11.6242-.27558-1.636-.24707-5.1377.04752-6.745.82675-4.5157 2.65132-8.1991 5.63524-11.34674 4.86553-5.11849 11.67913-7.47204 18.71133-6.44834zm-12.8575 30.92138c-.6842 1.4256-1.9006 4.8411-1.7961 5.0229.0475.0861.4562.4783.9123.8801.4656.4019.8553.775.8743.842.0285.0669-.1141.2774-.3136.4783-.2091.2201-.2851.2679-.1901.1244.3706-.5836.3991-.5071-.5607-1.3968-.6462-.6028-.9027-.8993-.9027-1.062 0-.4975 1.8815-5.2907 2.0811-5.2907.0475 0 0 .1818-.1045.4018z" fill="#000"/>
</svg>
